<svg version="1.0" xmlns="http://www.w3.org/2000/svg"
 width="34.000000pt" height="34.000000pt" viewBox="0 0 64.000000 64.000000"
 preserveAspectRatio="xMidYMid meet" fill="green" stroke="green">

<g transform="translate(0.000000,64.000000) scale(0.100000,-0.100000)"
fill="green" stroke="green">
<path d="M480 527 c-31 -24 -94 -85 -140 -134 l-84 -91 -59 40 c-55 37 -60 39
-75 24 -12 -12 -14 -21 -7 -31 6 -8 39 -57 75 -109 36 -53 67 -96 70 -96 3 0
20 26 39 58 58 98 170 250 233 318 59 63 60 64 32 64 -19 0 -48 -15 -84 -43z"/>
</g>
</svg>