<svg version="1.0" xmlns="http://www.w3.org/2000/svg"
 width="340.000000pt" height="340.000000pt" viewBox="0 0 360.000000 360.000000"
 preserveAspectRatio="xMidYMid meet" >

<g  stroke="none" transform="translate(0.000000,360.000000) scale(0.100000,-0.100000)">
<path d="M0 1800 l0 -1800 1800 0 1800 0 0 1800 0 1800 -1800 0 -1800 0 0
-1800z m1930 1188 c45 -23 85 -71 96 -115 9 -33 3 -35 -47 -24 -57 13 -182 14
-249 1 -29 -6 -55 -8 -58 -6 -8 9 7 52 30 86 28 41 99 80 147 80 20 0 57 -10
81 -22z m116 -239 c250 -77 419 -261 495 -540 8 -29 14 -179 18 -428 l6 -385
75 -65 c84 -74 79 -74 -39 -2 -46 28 -88 51 -91 51 -4 0 -10 150 -13 333 -6
348 -10 389 -57 512 -68 178 -221 325 -400 385 -99 34 -243 38 -349 12 -46
-12 -108 -34 -138 -49 -127 -65 -245 -193 -302 -330 -51 -121 -61 -209 -61
-549 l0 -303 -52 -34 c-29 -18 -75 -46 -103 -62 l-50 -28 68 62 67 63 0 351
c0 310 3 363 20 447 23 114 87 249 156 334 99 121 254 212 409 242 95 18 252
11 341 -17z m-6 -1409 c248 -21 404 -55 585 -127 84 -33 225 -118 225 -136 0
-4 -31 8 -68 27 -375 189 -1047 236 -1551 110 -112 -28 -247 -76 -331 -119
-28 -14 -54 -25 -56 -23 -9 9 105 83 181 118 194 89 363 128 670 153 89 8 236
6 345 -3z m-1390 -310 c79 -15 92 -34 55 -83 -13 -18 -15 -17 -55 9 -62 41
-169 44 -264 8 -9 -3 -16 -1 -16 5 0 16 81 51 139 61 67 11 82 11 141 0z m368
-12 c35 -29 34 -75 -3 -221 -6 -24 -4 -29 14 -34 56 -15 -2 -43 -88 -43 -88 0
-93 11 -52 125 18 52 31 104 29 117 -3 21 -8 23 -60 23 -63 -1 -74 9 -30 27
74 29 158 32 190 6z m773 1 c23 -12 24 -23 3 -54 -21 -33 -40 -31 -71 5 -37
44 -103 35 -103 -14 0 -29 16 -44 55 -49 39 -5 39 -29 0 -40 -60 -18 -80 -32
-80 -57 0 -41 42 -57 111 -42 63 13 80 8 49 -14 -41 -30 -161 -44 -243 -28
-61 12 -90 66 -59 108 7 10 37 26 66 36 l53 18 -27 13 c-82 41 -45 103 80 133
29 7 145 -3 166 -15z m518 -4 c17 -8 34 -27 37 -40 8 -32 -18 -73 -51 -81 -31
-8 -32 -17 -1 -38 47 -31 41 -92 -12 -120 -34 -17 -265 -20 -319 -4 -39 11
-42 25 -9 38 17 6 30 25 44 62 44 117 65 138 138 138 39 0 38 4 17 -64 -5 -17
-3 -18 23 -12 59 15 84 64 45 86 -29 15 -122 12 -171 -5 -48 -17 -60 -18 -60
-7 0 27 159 72 237 67 29 -2 66 -11 82 -20z m394 4 c21 -12 22 -28 1 -57 -20
-29 -48 -28 -62 3 -22 48 -112 42 -112 -9 0 -29 17 -44 59 -52 38 -8 36 -26
-5 -37 -84 -25 -107 -61 -59 -93 23 -15 35 -16 88 -7 68 11 75 10 58 -11 -30
-36 -216 -50 -274 -20 -38 20 -47 31 -47 61 0 28 51 70 95 79 43 8 44 15 2 34
-64 30 -32 90 60 116 50 14 163 10 196 -7z m-1363 -3 c0 -8 -6 -16 -13 -19 -8
-3 -25 -34 -39 -69 -54 -134 -68 -172 -65 -174 10 -10 88 32 121 65 41 40 76
53 76 29 0 -30 -23 -91 -41 -109 -17 -17 -34 -19 -164 -19 -153 0 -169 5 -126
44 11 10 29 54 41 98 40 150 55 166 153 167 42 1 57 -3 57 -13z m1643 8 c4 -4
-6 -22 -22 -40 -16 -17 -39 -63 -51 -101 -13 -37 -29 -81 -37 -96 -8 -16 -12
-31 -10 -34 11 -10 95 36 130 71 59 58 82 44 56 -35 -21 -64 -35 -69 -195 -69
-99 0 -144 3 -144 11 0 6 11 24 25 41 14 16 25 36 25 43 0 8 11 50 25 94 32
101 55 121 135 121 31 0 60 -3 63 -6z m367 -4 c0 -5 -11 -20 -24 -33 -13 -13
-33 -54 -46 -93 -12 -38 -31 -84 -42 -103 -10 -18 -17 -35 -15 -37 11 -12 83
23 125 61 28 25 55 45 61 45 13 0 14 -50 2 -83 -21 -54 -31 -57 -186 -57 -79
0 -146 4 -149 9 -3 4 3 16 14 26 11 10 27 44 36 74 52 187 63 201 159 201 36
0 65 -4 65 -10z m-2814 -74 c1 -10 6 -22 11 -25 4 -4 29 -24 55 -44 26 -21 50
-47 53 -58 12 -37 -4 -69 -40 -85 -62 -26 -265 -13 -265 17 0 19 21 49 34 49
7 0 34 -11 59 -25 75 -42 108 -9 38 39 -64 45 -84 71 -77 101 12 48 126 75
132 31z m364 16 c0 -4 -16 -23 -35 -42 -41 -40 -45 -60 -10 -60 40 0 29 -19
-15 -26 -45 -7 -65 -32 -57 -71 3 -19 -1 -27 -19 -35 -35 -16 -74 -2 -74 26 0
44 74 137 149 187 45 30 61 35 61 21z"/>
<path d="M2135 858 c-22 -72 -26 -90 -21 -95 3 -4 23 -2 43 3 28 7 40 16 48
38 8 24 6 31 -14 47 -27 22 -50 25 -56 7z"/>
</g>
</svg>
